<?xml version="1.0" encoding="utf-8"?>
<!-- Generator: Adobe Illustrator 23.0.4, SVG Export Plug-In . SVG Version: 6.00 Build 0)  -->
<svg version="1.1" id="Layer_1" xmlns="http://www.w3.org/2000/svg" xmlns:xlink="http://www.w3.org/1999/xlink" x="0px" y="0px"
	 viewBox="0 0 166.2611 32.2761" style="enable-background:new 0 0 166.2611 32.2761;" xml:space="preserve">
<style type="text/css">
	.st0{fill:#333333;}
	.st1{fill:#71A9AD;}
	.st2{fill:#DB3230;}
</style>
<path class="st0" d="M37.4428,26.4413V6.2782h6.3838c1.2378,0,2.3174,0.123,3.2085,0.3652
	c0.8862,0.2412,1.6235,0.5889,2.1919,1.0322c0.563,0.4395,0.9839,0.9854,1.25,1.6221c0.2676,0.6416,0.4033,1.375,0.4033,2.1807
	c0,0.4863-0.0771,0.959-0.2285,1.4043s-0.3818,0.8662-0.6846,1.252c-0.3037,0.3867-0.6938,0.7393-1.1602,1.0479
	c-0.4668,0.3105-1.0234,0.5664-1.6548,0.7607l0.0137,0.251c1.4678,0.2793,2.5835,0.8057,3.3159,1.5664
	c0.7275,0.7559,1.0967,1.7637,1.0967,2.9961c0,0.8428-0.1572,1.6201-0.4663,2.3125c-0.3086,0.6904-0.7666,1.2939-1.3618,1.792
	c-0.5981,0.501-1.3433,0.8936-2.2139,1.165c-0.875,0.2754-1.8882,0.415-3.0117,0.415H37.4428z M39.935,24.5067h4.5474
	c0.7969,0,1.4961-0.0938,2.0771-0.2773c0.584-0.1846,1.0728-0.4502,1.4512-0.79c0.3799-0.3398,0.6621-0.75,0.8398-1.2188
	c0.1758-0.4639,0.2646-0.9805,0.2646-1.5352c0-1.0908-0.3945-1.9658-1.1733-2.6025c-0.771-0.6289-1.9351-0.9482-3.4595-0.9482
	H39.935V24.5067z M39.935,15.4276h3.7778c0.79,0,1.4858-0.0889,2.0679-0.2627c0.5884-0.1748,1.0825-0.4219,1.4697-0.7354
	c0.3901-0.3154,0.6836-0.7041,0.8716-1.1553c0.1865-0.4463,0.2808-0.9404,0.2808-1.4678c0-1.2432-0.3813-2.167-1.1333-2.7471
	c-0.7417-0.5703-1.8999-0.8604-3.4429-0.8604H39.935V15.4276z"/>
<path class="st0" d="M53.8188,26.4413V12.2635h1.3242c0.2969,0,0.4238,0.0645,0.478,0.1191c0.083,0.083,0.144,0.2441,0.1772,0.4688
	l0.2085,2.6816l0.2085-0.4512c0.4453-0.9658,0.9995-1.7295,1.647-2.2715c0.6377-0.5332,1.4297-0.8027,2.3545-0.8027
	c0.292,0,0.4745,0.002,0.744,0.0655c0.2363,0.0566,0.4517,0.1416,0.6411,0.2549l-0.1772,1.8154
	c-0.0405,0.1631-0.1309,0.2393-0.2988,0.2393c-0.124,0-0.311-0.0273-0.5562-0.082c-0.2646-0.0586-0.4638-0.0587-0.7948-0.0587
	c-0.4692,0-0.8945,0.0703-1.2642,0.208c-0.3711,0.1377-0.7065,0.3457-0.9976,0.6182c-0.2876,0.2666-0.5498,0.6025-0.7793,0.998
	c-0.2251,0.3887-0.4326,0.8389-0.6152,1.3389l-0.0078,9.0361H53.8188z"/>
<path class="st0" d="M65.1049,26.6698c-0.543,0-1.062-0.0771-1.543-0.2295c-0.4751-0.1504-0.894-0.3799-1.2446-0.6807
	c-0.3491-0.2988-0.6304-0.6836-0.8354-1.1436c-0.2051-0.4609-0.3096-1.0156-0.3096-1.6504c0-0.5439,0.1523-1.0762,0.4521-1.5801
	c0.3013-0.5068,0.7993-0.9629,1.479-1.3574c0.6885-0.4014,1.6016-0.7344,2.7148-0.9912c1.1147-0.2578,2.5063-0.4082,4.1353-0.4453
	l0.1265-0.0029v-1.2529c0-1.1465-0.2549-2.0303-0.7573-2.627c-0.5083-0.6035-1.2563-0.9092-2.2227-0.9092
	c-0.6406,0-1.186,0.082-1.6201,0.2441c-0.4258,0.1572-0.7108,0.305-1.0287,0.5052c-0.311,0.1953-0.4936,0.3058-0.7182,0.465
	c-0.2007,0.1396-0.3989,0.2109-0.5879,0.2109c-0.145,0-0.2642-0.0361-0.3647-0.1104c-0.1099-0.0801-0.2046-0.1807-0.2817-0.3008
	l-0.4028-0.7178c0.7617-0.7197,1.4134-1.1674,2.2888-1.5287c0.9009-0.3721,1.915-0.5596,3.0146-0.5596
	c0.7861,0,1.4932,0.1299,2.1011,0.3877c0.6079,0.2588,1.125,0.6221,1.5366,1.0801c0.4126,0.458,0.7295,1.0215,0.9424,1.6768
	c0.2129,0.6592,0.3213,1.3936,0.3213,2.1836v9.1055h-0.9961c-0.2227,0-0.3916-0.0342-0.5029-0.1016
	c-0.1055-0.0645-0.1919-0.2012-0.2573-0.4062l-0.3286-1.5801l-0.168,0.1562c-0.377,0.3486-0.7476,0.6592-1.1016,0.9248
	c-0.3545,0.2656-0.73,0.4912-1.1167,0.6699c-0.3887,0.1807-0.8091,0.3213-1.249,0.418
	C66.1376,26.6209,65.641,26.6698,65.1049,26.6698z M69.9462,19.9422c-1.1694,0.0381-2.1802,0.1328-3.0044,0.2803
	c-0.8281,0.1484-1.5151,0.3467-2.041,0.5869c-0.5356,0.2461-0.9321,0.543-1.1768,0.8828c-0.248,0.3447-0.3735,0.7344-0.3735,1.1592
	c0,0.3965,0.0659,0.7451,0.1968,1.0361c0.1304,0.292,0.3125,0.5361,0.5415,0.7246c0.2285,0.1875,0.499,0.3252,0.8032,0.4092
	c0.2983,0.083,0.624,0.126,0.9683,0.126c0.4546,0,0.8774-0.0469,1.2563-0.1387c0.3789-0.0928,0.7412-0.2285,1.0767-0.4033
	c0.333-0.1738,0.6567-0.3848,0.9614-0.626c0.2998-0.2373,0.5991-0.5156,0.8906-0.8252l0.0347-3.2158L69.9462,19.9422z"/>
<path class="st0" d="M75.4242,26.4413V12.2635h2.2783v14.1777H75.4242z M76.5351,9.2674c-0.229,0-0.4438-0.0439-0.6387-0.1309
	c-0.1973-0.0879-0.373-0.21-0.5229-0.3643c-0.1499-0.1533-0.271-0.333-0.3589-0.5322c-0.0889-0.1982-0.1318-0.4072-0.1318-0.6387
	c0-0.2285,0.0449-0.4482,0.1323-0.6543c0.0884-0.208,0.209-0.3906,0.3584-0.5439c0.1494-0.1543,0.3257-0.2764,0.5229-0.3652
	c0.1968-0.0869,0.4116-0.1309,0.6387-0.1309c0.2275,0,0.4478,0.0439,0.6548,0.1318c0.207,0.0889,0.3896,0.2119,0.543,0.3652
	c0.1538,0.1533,0.2793,0.3369,0.373,0.5449c0.0913,0.2061,0.1382,0.4258,0.1382,0.6523c0,0.2305-0.0449,0.4385-0.1377,0.6367
	c-0.0933,0.1992-0.2188,0.3789-0.3735,0.5332c-0.1538,0.1543-0.3364,0.2764-0.543,0.3643
	C76.9848,9.2235,76.7646,9.2674,76.5351,9.2674z"/>
<path class="st0" d="M90.4604,26.4413v-9.0625c0-1.1172-0.2617-2.001-0.7783-2.626c-0.5225-0.6328-1.3203-0.9531-2.373-0.9531
	c-0.7695,0-1.498,0.1885-2.165,0.5586c-0.6621,0.3672-1.2793,0.8701-1.8369,1.4951l-0.0322,10.5879h-2.292V12.2635h1.3945
	c0.3008,0,0.4736,0.1357,0.5439,0.4277l0.2334,1.8369l0.1895-0.2129c0.3086-0.3457,0.6387-0.6621,0.9824-0.9404
	c0.3408-0.2764,0.71-0.5186,1.0967-0.7197c0.3809-0.1973,0.793-0.3516,1.2256-0.459c0.4287-0.1064,0.9004-0.1602,1.4014-0.1602
	c0.7666,0,1.4512,0.1279,2.0361,0.3809c0.582,0.2529,1.0742,0.6143,1.4639,1.0762c0.3906,0.4648,0.6914,1.0332,0.8936,1.6865
	c0.2041,0.6592,0.3076,1.3994,0.3076,2.1992v9.0625H90.4604z"/>
<polygon class="st0" points="102.6742,26.4413 102.6742,8.3416 96.0473,8.3416 96.0473,6.2782 111.7778,6.2782 111.7778,8.3416 
	105.1655,8.3416 105.1655,26.4413 "/>
<path class="st0" d="M110.185,26.4413V12.2635h1.3232c0.2969,0,0.4238,0.0645,0.4785,0.1191
	c0.083,0.083,0.1445,0.2441,0.1777,0.4688l0.208,2.6816l0.208-0.4512c0.4463-0.9658,1-1.7295,1.6475-2.2715
	c0.6377-0.5332,1.3469-0.8015,2.2717-0.8015c0.292,0,0.5771,0.0322,0.8457,0.0957c0.2373,0.0566,0.4531,0.1416,0.6426,0.2549
	l-0.1777,1.8154c-0.041,0.1621-0.1309,0.2393-0.2988,0.2393c-0.125,0-0.3115-0.0273-0.5557-0.082
	c-0.2656-0.0586-0.4846-0.0901-0.8156-0.0901c-0.4697,0-0.8945,0.0703-1.2627,0.208c-0.3711,0.1377-0.707,0.3457-0.999,0.6182
	c-0.2871,0.2676-0.5498,0.6035-0.7793,0.998c-0.2266,0.3916-0.4326,0.8418-0.6152,1.3389l-0.0078,9.0361H110.185z"/>
<path class="st0" d="M121.4711,26.6698c-0.543,0-1.0615-0.0771-1.543-0.2295c-0.4746-0.1504-0.8936-0.3799-1.2451-0.6807
	c-0.3486-0.2998-0.6299-0.6846-0.835-1.1436c-0.2051-0.46-0.3086-1.0146-0.3086-1.6504c0-0.5449,0.1514-1.0762,0.4512-1.5801
	c0.3008-0.5059,0.7979-0.9619,1.4795-1.3574c0.6885-0.4014,1.6016-0.7344,2.7139-0.9912c1.1152-0.2578,2.5068-0.4082,4.1357-0.4453
	l0.127-0.0029v-1.2529c0-1.1465-0.2549-2.0312-0.7568-2.627c-0.5098-0.6035-1.2578-0.9092-2.2236-0.9092
	c-0.6406,0-1.1855,0.082-1.6201,0.2441c-0.4248,0.1562-0.8018,0.3379-1.1211,0.5391c-0.3115,0.1953-0.4733,0.3067-0.6979,0.465
	c-0.2002,0.1406-0.3984,0.2119-0.5879,0.2119c-0.1445,0-0.2637-0.0361-0.3662-0.1104c-0.1084-0.0801-0.2031-0.1807-0.2812-0.3008
	l-0.4023-0.7178c0.7627-0.7197,1.4869-1.2023,2.3619-1.5636c0.8994-0.3721,1.9141-0.5596,3.0146-0.5596
	c0.7861,0,1.4932,0.1299,2.1006,0.3877c0.6074,0.2588,1.124,0.6221,1.5361,1.0801c0.4131,0.458,0.7305,1.0225,0.9434,1.6768
	c0.2129,0.6592,0.3203,1.3945,0.3203,2.1836v9.1055h-0.9961c-0.2217,0-0.3906-0.0342-0.502-0.1016
	c-0.1055-0.0645-0.1924-0.2012-0.2588-0.4072l-0.3271-1.5791l-0.168,0.1553c-0.3809,0.3516-0.751,0.6631-1.1025,0.9258
	c-0.3545,0.2656-0.7295,0.4902-1.1162,0.6699c-0.3896,0.1807-0.8096,0.3213-1.249,0.418
	C122.5033,26.6209,122.0063,26.6698,121.4711,26.6698z M126.3129,19.9422c-1.1699,0.0381-2.1807,0.1328-3.0049,0.2803
	c-0.8291,0.1494-1.5156,0.3467-2.04,0.5869c-0.5361,0.2461-0.9326,0.543-1.1777,0.8838c-0.248,0.3428-0.374,0.7334-0.374,1.1582
	c0,0.3975,0.0664,0.7461,0.1973,1.0361c0.1309,0.292,0.3125,0.5361,0.542,0.7246c0.2275,0.1865,0.498,0.3242,0.8027,0.4092
	c0.2979,0.083,0.624,0.126,0.9678,0.126c0.4551,0,0.8779-0.0469,1.2559-0.1387c0.3789-0.0928,0.7412-0.2285,1.0771-0.4033
	c0.334-0.1738,0.6572-0.3848,0.9619-0.626c0.2988-0.2373,0.5986-0.5146,0.8906-0.8252l0.0352-3.2158L126.3129,19.9422z"/>
<path class="st0" d="M159.8793,26.6405c-0.8809,0-1.71-0.1641-2.4648-0.4873c-0.7529-0.3232-1.416-0.7998-1.9707-1.415
	c-0.5566-0.6152-0.998-1.3848-1.3145-2.2861s-0.4766-1.9473-0.4766-3.1064c0-1.0557,0.1484-2.0439,0.4424-2.9385
	c0.292-0.8906,0.7246-1.6699,1.2852-2.3145c0.5605-0.6426,1.2598-1.1514,2.0781-1.5127c0.8213-0.3613,1.7803-0.5439,2.8486-0.5439
	c0.9932,0,1.8799,0.1611,2.6357,0.4805c0.7217,0.3066,1.373,0.7383,1.9385,1.2842l-0.6035,0.8213
	c-0.0684,0.0947-0.1348,0.167-0.2002,0.2158c-0.0537,0.04-0.1328,0.0596-0.2363,0.0596c-0.1152,0-0.249-0.0518-0.3965-0.1553
	c-0.1738-0.1201-0.3887-0.2529-0.6445-0.3984c-0.2559-0.1445-0.5752-0.2793-0.9502-0.4014c-0.376-0.123-0.8428-0.1855-1.3867-0.1855
	c-0.7285,0-1.3799,0.1318-1.9355,0.3906c-0.5596,0.2598-1.0332,0.6396-1.4092,1.1289c-0.375,0.4854-0.6602,1.0801-0.8486,1.7686
	c-0.1875,0.6826-0.2832,1.457-0.2832,2.3008c0,0.8818,0.1025,1.6777,0.3047,2.3662c0.2041,0.6934,0.4971,1.2832,0.8711,1.7549
	c0.376,0.4736,0.8369,0.8408,1.3721,1.0908c0.5322,0.249,1.1387,0.376,1.8008,0.376c0.6309,0,1.1592-0.0771,1.5693-0.2295
	c0.4092-0.1504,0.752-0.3213,1.0195-0.5059c0.2646-0.1836,0.4873-0.3496,0.665-0.499c0.1514-0.127,0.2979-0.1904,0.4375-0.1904
	c0.168,0,0.2881,0.0596,0.3789,0.1875l0.6523,0.8486c-0.29,0.3457-0.6182,0.6455-0.9766,0.8936
	c-0.3877,0.2676-0.8125,0.4951-1.2656,0.6777c-0.4473,0.1807-0.9248,0.3145-1.4189,0.3984
	C160.9057,26.5985,160.3959,26.6405,159.8793,26.6405z"/>
<path class="st0" d="M143.0317,12.5487v-0.8564c0-1.4385,0.3984-2.5322,1.1826-3.2529c0.6983-0.6415,1.7921-0.9958,3.2452-1.0634
	c0.226-0.0106,0.4127-0.187,0.419-0.4131l0.0327-1.1852c-0.2171-0.0162-0.4399-0.0414-0.6452-0.0414
	c-1.0625,0-2.0098,0.1465-2.8135,0.4346c-0.7998,0.2861-1.4775,0.6934-2.0137,1.21c-0.5342,0.5166-0.9404,1.1406-1.208,1.8564
	c-0.2686,0.7168-0.4053,1.5195-0.4053,2.3838v0.9277h-6.7725v-1.2275c0-0.6299,0.0723-1.1689,0.2139-1.6006
	c0.1416-0.4385,0.3486-0.7988,0.6143-1.0693s0.5908-0.4668,0.9668-0.582c0.3672-0.1123,0.7803-0.1699,1.2275-0.1699
	c0.3945,0,0.7041-0.0078,0.9307-0.0273c0.165-0.0137,0.2383-0.0869,0.251-0.248l0.0664-1.1846
	c-0.5117-0.1641-1.0703-0.2471-1.6611-0.2471c-0.7412,0-1.416,0.1123-2.0068,0.334c-0.5859,0.2197-1.0928,0.5469-1.5059,0.9727
	c-0.4131,0.4277-0.7363,0.959-0.9609,1.5791c-0.2275,0.624-0.3418,1.3496-0.3418,2.1582v1.3125h-2.2803v0.9111
	c0,0.1504,0.0449,0.2598,0.1367,0.334c0.1074,0.0859,0.2568,0.1514,0.4326,0.1924l1.7109,0.1992v12.2559h2.2773V14.1278h6.7012
	v12.3135h2.2773V14.1278h4.6746v-1.5791H143.0317z"/>
<polygon class="st0" points="149.4623,12.5487 149.4623,14.1278 149.4623,19.495 149.4623,26.4413 151.7543,26.4413 
	151.7543,12.5487 "/>
<circle class="st0" cx="150.6083" cy="7.5872" r="1.5625"/>
<path class="st1" d="M13.237,8.5215c-0.2493,0-0.5116-0.1095-0.7589-0.3176L7.7087,4.1893c2.362-1.5409,5.1005-2.3545,7.9315-2.3545
	l0.1743,0.0039l-1.6839,5.8623c-0.1483,0.5137-0.4821,0.8205-0.8934,0.8205H13.237z"/>
<path class="st1" d="M2.9548,23.448c-0.4954-0.8862-0.8975-1.8263-1.1982-2.7975c0.1075-0.0647,0.2157-0.1336,0.3274-0.2075
	l10.1167-6.7367c0.2341-0.1567,0.4777-0.2392,0.7029-0.2392c0.471,0,0.8231,0.3441,0.937,0.9199l1.1992,6.0681
	c0.0851,0.43-0.0054,0.8564-0.2562,1.1963c-0.2503,0.3408-0.628,0.5555-1.0654,0.6029L2.9548,23.448z"/>
<path class="st1" d="M1.4847,19.6457c-0.2482-1.0774-0.3738-2.1789-0.3738-3.2799c0-1.8409,0.3436-3.6414,1.0221-5.354
	c0.1041,0.0142,0.2109,0.0265,0.3207,0.0372l7.4763,0.788c0.4039,0.042,0.6753,0.1737,0.7269,0.3541
	c0.0518,0.1812-0.1098,0.4387-0.4325,0.688L1.4847,19.6457z"/>
<path class="st2" d="M18.0529,20.7917c-0.5078,0-0.8971-0.3676-1.013-0.961l-1.2138-6.1351
	c-0.0866-0.4305,0.0033-0.8542,0.2534-1.1935c0.2497-0.3398,0.6285-0.5514,1.0679-0.5988l11.4992-1.2185
	c0.1199-0.0127,0.2359-0.0291,0.348-0.0438c0.4508,1.0503,0.7766,2.1531,0.9671,3.2791c-0.0554,0.0311-0.2307,0.1317-0.2307,0.1317
	l-10.9993,6.5354C18.5062,20.7208,18.2719,20.7917,18.0529,20.7917L18.0529,20.7917z"/>
<path class="st2" d="M17.0542,10.0272c-0.4225,0-0.7892-0.1596-1.0334-0.4501c-0.2467-0.2933-0.3436-0.688-0.2711-1.1104
	c0,0,1.11-6.5266,1.1182-6.5766c4.9444,0.4157,9.3901,3.3886,11.6788,7.8018L17.0542,10.0272z"/>
<path class="st1" d="M2.574,10.0124C3.559,7.9875,5.0198,6.1993,6.8125,4.8232l4.0199,4.2374
	c0.2845,0.3001,0.4011,0.5772,0.3217,0.7638c-0.0778,0.1817-0.3514,0.2851-0.7499,0.2851L2.574,10.0124z"/>
<path class="st1" d="M15.2432,30.8847c-4.7093-0.1265-9.0475-2.522-11.6757-6.4406c0,0,10.3034-0.3245,10.3047-0.3245
	c0.4802,0,0.8721,0.1663,1.1587,0.4637c0.2879,0.3016,0.4383,0.7042,0.4214,1.1355L15.2432,30.8847z"/>
<path class="st2" d="M17.1997,25.7269c0.1585-0.9153,1.0442-1.6606,1.9734-1.6626l8.7947-0.0056
	c-2.5428,4.0673-6.8749,6.6018-11.6624,6.8158L17.1997,25.7269z"/>
<path class="st2" d="M28.2564,23.0281l-8.4995-0.2957c-0.4021-0.0353-0.6664-0.1487-0.7083-0.3055
	c-0.042-0.1556,0.132-0.3866,0.4656-0.617l10.5919-6.7945c0.0415,0.4616,0.0631,0.9143,0.0631,1.3502
	c0,2.3565-0.5487,4.6086-1.633,6.6914C28.4452,23.0471,28.3524,23.037,28.2564,23.0281z"/>
</svg>
